<?xml version="1.0" encoding="UTF-8"?>
<svg width="55px" height="55px" viewBox="0 0 55 55" version="1.1" xmlns="http://www.w3.org/2000/svg" xmlns:xlink="http://www.w3.org/1999/xlink">
    <!-- Generator: Sketch 63.1 (92452) - https://sketch.com -->
    <title>Beans</title>
    <desc>Created with Sketch.</desc>
    <g id="Todo-v3.0-青豆清单" stroke="none" stroke-width="1" fill="none" fill-rule="evenodd">
        <g id="History" transform="translate(-569.000000, -1066.000000)">
            <g id="编组" transform="translate(56.000000, 673.000000)">
                <g id="编组-5备份" transform="translate(54.000000, 393.000000)">
                    <g id="Beans-2备份-2" transform="translate(459.000000, 0.000000)">
                        <g id="Beans" transform="translate(2.464000, 6.160000)">
                            <path d="M5.1042024,35.3371644 C-6.74681176,22.970801 4.25513654,8.80023467 15.6160251,13.0499226 C19.6136405,14.5364262 25.9877317,13.6748344 28.595184,5.7739926 C32.4177737,-5.73028342 50.0199306,1.267124 49.2558625,15.2489164 C48.0408366,37.4828534 16.9552166,47.7035277 5.1042024,35.3371644 Z" id="Fill-1" stroke="#FF5050" stroke-width="3.696" fill="#FF5050"></path>
                            <g id="加号" transform="translate(17.776000, 15.840000)" fill="#FFFFFF" fill-rule="nonzero" stroke="#FFFFFF" stroke-width="1.76">
                                <path d="M0.79464,8.67944001 L14.98728,8.67944001 C15.4227455,8.67944001 15.77576,8.32642548 15.77576,7.89096 C15.77576,7.45549452 15.4227455,7.10247999 14.98728,7.10247999 L0.79464,7.10247999 C0.359174517,7.10247999 0.00615999384,7.45549452 0.00615999384,7.89096 C0.00615999384,8.32642548 0.359174517,8.67944001 0.79464,8.67944001 L0.79464,8.67944001 Z" id="路径"></path>
                                <path d="M7.10247999,0.79464 L7.10247999,14.98728 C7.10247999,15.4227455 7.45549452,15.77576 7.89096,15.77576 C8.32642548,15.77576 8.67944001,15.4227455 8.67944001,14.98728 L8.67944001,0.79464 C8.67944001,0.359174517 8.32642548,0.00615999384 7.89096,0.00615999384 C7.45549452,0.00615999384 7.10247999,0.359174517 7.10247999,0.79464 L7.10247999,0.79464 Z" id="路径"></path>
                            </g>
                        </g>
                    </g>
                </g>
            </g>
        </g>
    </g>
</svg>