<?xml version="1.0" standalone="no"?><!DOCTYPE svg PUBLIC "-//W3C//DTD SVG 1.1//EN" "http://www.w3.org/Graphics/SVG/1.1/DTD/svg11.dtd"><svg t="1652500001054" class="icon" viewBox="0 0 1024 1024" version="1.1" xmlns="http://www.w3.org/2000/svg" p-id="1874" xmlns:xlink="http://www.w3.org/1999/xlink" width="200" height="200"><defs><style type="text/css"></style></defs><path d="M640 0c212.072727 0 384 171.927273 384 384v256c0 212.072727-171.927273 384-384 384H384C171.927273 1024 0 852.072727 0 640V384C0 171.927273 171.927273 0 384 0h256z m0 23.272727H384C186.763636 23.272727 26.507636 181.562182 23.319273 378.030545L23.272727 384v256c0 197.236364 158.289455 357.492364 354.757818 360.680727L384 1000.727273h256c197.236364 0 357.492364-158.289455 360.680727-354.757818L1000.727273 640V384C1000.727273 186.763636 842.437818 26.507636 645.969455 23.319273L640 23.272727z" fill="#999999" p-id="1875"></path><path d="M302.545455 535.272727h418.90909a23.272727 23.272727 0 1 0 0-46.545454H302.545455a23.272727 23.272727 0 1 0 0 46.545454z" fill="#999999" p-id="1876"></path><path d="M488.727273 302.545455v418.90909a23.272727 23.272727 0 1 0 46.545454 0V302.545455a23.272727 23.272727 0 1 0-46.545454 0z" fill="#999999" p-id="1877"></path></svg>