<?xml version="1.0" encoding="UTF-8"?>
<svg width="42px" height="35px" viewBox="0 0 42 35" version="1.1" xmlns="http://www.w3.org/2000/svg" xmlns:xlink="http://www.w3.org/1999/xlink">
    <!-- Generator: Sketch 63.1 (92452) - https://sketch.com -->
    <title>b</title>
    <desc>Created with Sketch.</desc>
    <defs>
        <radialGradient cx="54.5842297%" cy="50%" fx="54.5842297%" fy="50%" r="73.9082199%" gradientTransform="translate(0.545842,0.500000),scale(0.769672,1.000000),rotate(78.296205),translate(-0.545842,-0.500000)" id="radialGradient-1">
            <stop stop-color="#AFE4AA" offset="0%"></stop>
            <stop stop-color="#5EAC55" offset="100%"></stop>
        </radialGradient>
        <polygon id="path-2" points="0 0 36.066432 0 36.066432 28.14816 0 28.14816"></polygon>
    </defs>
    <g id="Todo-v3.0-青豆清单" stroke="none" stroke-width="1" fill="none" fill-rule="evenodd">
        <g id="青豆启动页2" transform="translate(-257.000000, -1259.000000)">
            <g id="编组-2" transform="translate(257.000000, 1259.000000)">
                <g id="b-2">
                    <g id="b">
                        <path d="M4.3051757,29.7450187 C-5.66814531,19.3496814 3.59063715,7.43770592 13.1514889,11.0100528 C16.5157158,12.2596284 21.8798861,11.5353624 24.0742096,4.89380468 C27.2911422,-4.77685002 42.1043859,1.10526814 41.461378,12.8585576 C40.4388627,31.5487148 14.2784967,40.140356 4.3051757,29.7450187 Z" id="Fill-1" fill="#1E4F18"></path>
                        <path d="M6.0733816,27.6302253 C-2.65111235,19.5253924 4.92140766,11.7076 13.2850804,14.4928174 C16.2280497,15.467062 23.344541,13.870846 25.2640984,8.69268641 C28.0782171,1.15285981 39.7003067,0.472340698 37.411976,16.2108657 C36.747686,20.7796745 30.9791337,24.369048 27.7371062,26.6844807 C19.8110736,32.3451961 10.6133179,31.8477107 6.0733816,27.6302253 Z" id="Fill-1" fill="url(#radialGradient-1)"></path>
                        <g id="编组" transform="translate(2.304000, 1.496014)">
                            <mask id="mask-3" fill="white">
                                <use xlink:href="#path-2"></use>
                            </mask>
                            <g id="Clip-2"></g>
                            <path d="M10.690848,13.3396608 C14.959776,14.8123008 21.245472,13.6572288 23.694432,6.7884288 C25.44528,1.8964608 33.226464,2.4524928 36.258528,8.2424448 C34.33392,0.7020288 25.032672,-1.3984512 22.990944,4.7518848 C20.532576,12.1845888 14.222112,13.3890048 9.98736,11.8142208 C7.91664,11.0395008 5.60304,11.2084608 3.696288,12.3456768 C-3.010848,16.3279488 0.205044475,26.2489657 7.70110848,28.9882297 C0.762228475,26.2236217 -2.129568,17.4290688 4.399776,13.8327168 C6.306528,12.7776768 8.620128,12.6210048 10.690848,13.3396608 Z" id="Fill-1" fill="#6EC664" mask="url(#mask-3)"></path>
                        </g>
                        <path d="M19.0985261,26.3808 C18.5880215,26.3817297 18.0993333,26.1801526 17.7396326,25.8189485 L12.6181863,20.6717826 C11.8688097,19.9192741 11.8710257,18.6958339 12.6231333,17.9405816 C13.3752409,17.1853293 14.5935881,17.1831029 15.3429648,17.9356114 L19.1112665,21.7153462 L26.7483822,14.0462986 C27.5004898,13.2910463 28.7188371,13.2888199 29.4682137,14.0413284 C30.2175903,14.7938369 30.2153743,16.0172771 29.4632667,16.7725294 L20.4594719,25.8096705 C20.0984524,26.1764995 19.6090308,26.3798639 19.0985261,26.3808 Z" id="路径" fill="#FFFFFF" fill-rule="nonzero" opacity="0.583612351"></path>
                        <path d="M38.8653599,13.8624 C36.5192659,31.4619407 14.2209504,34.9448735 6.47469607,28.5678608 C5.62639238,27.8695048 4.5461588,26.6114127 4.04214436,25.8935652 C2.51250475,23.7149611 2.02897547,21.6952763 2.23956912,19.5814144 C2.29515024,20.1341248 2.3364085,22.2515515 4.57270423,24.5694414 C5.45904601,25.4881226 7.46256652,27.2347024 8.77411323,27.716929 C15.1243847,30.0517832 29.3596997,31.8061909 36.6423195,15.5700938 C38.562528,11.2891217 36.841561,6.20596591 35.0720278,4.37843462 C37.6024068,6.25105609 39.4980728,9.1160191 38.8653599,13.8624 Z" id="路径" fill="#2E7928"></path>
                    </g>
                </g>
            </g>
        </g>
    </g>
</svg>