<?xml version="1.0" encoding="UTF-8"?>
<svg width="55px" height="55px" viewBox="0 0 55 55" version="1.1" xmlns="http://www.w3.org/2000/svg" xmlns:xlink="http://www.w3.org/1999/xlink">
    <!-- Generator: Sketch 63.1 (92452) - https://sketch.com -->
    <title>Beans</title>
    <desc>Created with Sketch.</desc>
    <g id="Todo-v3.0-青豆清单" stroke="none" stroke-width="1" fill="none" fill-rule="evenodd">
        <g id="History" transform="translate(-636.000000, -1066.000000)">
            <g id="编组" transform="translate(56.000000, 673.000000)">
                <g id="编组-5备份" transform="translate(54.000000, 393.000000)">
                    <g id="Beans-2" transform="translate(526.000000, 0.000000)">
                        <g id="Beans" transform="translate(2.464000, 6.160000)">
                            <path d="M5.1042024,35.3371644 C-6.74681176,22.970801 4.25513654,8.80023467 15.6160251,13.0499226 C19.6136405,14.5364262 25.9877317,13.6748344 28.595184,5.7739926 C32.4177737,-5.73028342 50.0199306,1.267124 49.2558625,15.2489164 C48.0408366,37.4828534 16.9552166,47.7035277 5.1042024,35.3371644 Z" id="Fill-1" stroke="#07C15E" stroke-width="3.696" fill="#07C15E"></path>
                            <path d="M23.2777752,31.39136 C22.6226276,31.3925531 21.9954778,31.1338625 21.5338618,30.6703173 L14.9613391,24.0647877 C13.9996391,23.0990684 14.0024829,21.5289868 14.9676877,20.5597464 C15.9328925,19.5905059 17.4964381,19.5876487 18.4581381,20.553368 L23.2941254,25.4040277 L33.0950905,15.5620832 C34.0602953,14.5928428 35.6238409,14.5899856 36.5855409,15.5557048 C37.5472409,16.521424 37.5443971,18.0915056 36.5791923,19.0607461 L25.0243222,30.6584104 C24.5610139,31.1291743 23.9329228,31.3901587 23.2777752,31.39136 Z" id="路径" fill="#F9F9F9" fill-rule="nonzero"></path>
                        </g>
                    </g>
                </g>
            </g>
        </g>
    </g>
</svg>