<?xml version="1.0" encoding="UTF-8"?>
<svg width="50px" height="50px" viewBox="0 0 50 50" version="1.1" xmlns="http://www.w3.org/2000/svg" xmlns:xlink="http://www.w3.org/1999/xlink">
    <!-- Generator: Sketch 59 (86127) - https://sketch.com -->
    <title>编组</title>
    <desc>Created with Sketch.</desc>
    <g id="页面-2" stroke="none" stroke-width="1" fill="none" fill-rule="evenodd">
        <g id="搜索队友" transform="translate(-657.000000, -36.000000)">
            <rect fill="#F6F6F6" x="0" y="0" width="750" height="1334"></rect>
            <g id="编组-2" transform="translate(657.000000, 36.000000)" fill="#595851" fill-rule="nonzero">
                <g id="编组" transform="translate(0.000000, 8.000000)">
                    <path d="M33.4999542,0 C39.10463,0 43.6465715,4.49435233 43.6447451,10.0390299 C43.6447451,13.7888388 41.5432026,17.1609772 38.2643468,18.8915807 C43.7413608,20.7763936 47.5998447,25.755974 47.9542642,31.5382977 L47.9698881,31.8488199 L47.9917369,31.9329265 C47.9973923,31.958369 48,31.9801149 48,32.0060498 C48,32.5547311 47.5501275,33 46.9956325,33 C46.4500818,33 46.0058036,32.5689793 45.9916146,32.0325156 L45.9686673,32.0105753 C45.7387946,25.3648869 40.2320309,20.078097 33.4999665,20.078097 C26.7679665,20.078097 21.2611515,25.3649607 21.0313353,32.0105742 L21.0083283,32.0325717 C20.9941098,32.5690082 20.5498448,33 20.0043119,33 C19.4499016,33 19,32.5547048 19,32.0060498 C19,31.9678001 19.0052426,31.9408876 19.0182235,31.8926628 L19.0250883,31.8685223 L19.0420255,31.5565796 C19.3999375,25.7555522 23.2574953,20.7761747 28.7336693,18.8915777 L28.4838376,18.7552475 C25.3490798,16.9878908 23.3533564,13.6914958 23.3533564,10.0390299 C23.3533564,4.49410234 27.8955911,0 33.4999542,0 Z M21.7821159,6 L21.6908591,6.23695545 C21.4268556,6.92246079 21.2283634,7.593672 21.0971968,8.26452259 L21.0291654,8.35530936 C19.384094,9.20404144 18.3298153,10.880887 18.3298153,12.7523751 C18.3298153,15.4082852 20.4222691,17.5801674 23.0641182,17.6897357 L23.1640437,17.7437228 C23.4118753,18.0888312 23.6884005,18.427901 24,18.7723776 L23.9854771,18.9613122 C23.7126619,19.1825654 23.4662147,19.4058275 23.243109,19.6362021 L23.151857,19.6756587 C18.6065933,19.7392098 14.9497128,23.455011 14.9497128,28.0213552 C14.9497128,28.5615718 14.5129485,29 13.9747704,29 C13.4366558,29 13,28.561578 13,28.0213552 C13,23.7858159 15.5747795,20.0397554 19.4134643,18.4763264 L19.2150071,18.3362825 C17.4541523,17.0472883 16.3801059,14.993276 16.3801059,12.7523819 C16.3801059,9.58564996 18.5222909,6.85000159 21.5371728,6.06386909 L21.7821159,6 Z M6.5,12 C7.03754694,12 7.47331423,12.4357673 7.47331423,12.9733142 L7.47331423,12.9733142 L7.47331423,17.5266858 L12.0266858,17.5266859 C12.5642327,17.5266859 13,17.9624532 13,18.5 C13,19.0375469 12.5642327,19.4733143 12.0266858,19.4733142 L12.0266858,19.4733142 L7.47331419,19.4733142 L7.47331419,24.0266858 C7.47331419,24.5642327 7.0375469,25 6.5,25 C5.96245315,25 5.52668593,24.5642327 5.52668585,24.0266858 L5.52668585,24.0266858 L5.52668585,19.4733141 L0.973314171,19.4733141 C0.435767297,19.4733141 0,19.0375468 0,18.5 C0,17.9624531 0.435767297,17.5266858 0.973314171,17.5266858 L0.973314171,17.5266858 L5.52668589,17.5266858 L5.52668589,12.9733142 C5.52668589,12.4357673 5.96245319,12 6.5,12 Z M34,2 C29.582232,2 26,5.58225283 26,10 C26,14.4177472 29.582232,18 34,18 C38.417768,18 42,14.4177472 42,10 C42,5.58227511 38.4177561,2 34,2 Z" id="形状结合"></path>
                </g>
            </g>
        </g>
    </g>
</svg>