<?xml version="1.0" encoding="UTF-8"?>
<svg width="232px" height="232px" viewBox="0 0 232 232" version="1.1" xmlns="http://www.w3.org/2000/svg" xmlns:xlink="http://www.w3.org/1999/xlink">
    <!-- Generator: Sketch 63.1 (92452) - https://sketch.com -->
    <title>编组 2备份 3</title>
    <desc>Created with Sketch.</desc>
    <g id="Todo-青豆清单✅" stroke="none" stroke-width="1" fill="none" fill-rule="evenodd">
        <g id="青豆启动页1" transform="translate(-259.000000, -198.000000)">
            <g id="编组-4备份-5" transform="translate(259.000000, 198.000000)">
                <g id="编组-2备份-4">
                    <g id="编组-2备份-3">
                        <rect id="矩形" fill="#FFFFFF" x="0" y="0" width="232" height="232" rx="50"></rect>
                        <path d="M113.871495,34 C159.087873,34 195.74299,70.7126505 195.74299,116 C195.74299,125.889737 193.994954,135.370558 190.791456,144.14943 L190.79321,144.135204 C185.40021,163.296902 189.054022,177.064793 201.754646,185.438876 C202.032537,185.598747 202.074371,185.86068 201.880148,186.224676 C201.588814,186.770669 201.070572,187.203698 200.920388,187.340222 C195.412041,192.347571 182.55663,191.031949 162.377445,185.438876 C161.17254,185.104912 160.001623,184.796901 158.864694,184.514843 C145.955052,193.039876 130.491615,198 113.871495,198 C68.6551169,198 32,161.287349 32,116 C32,70.7126505 68.6551169,34 113.871495,34 Z" id="形状结合" fill="#07BE51"></path>
                        <path d="M105.529679,158 C102.518556,158.00562 99.6361142,156.787009 97.5144816,154.603391 L67.3065209,123.486781 C62.8864531,118.937576 62.8995237,111.541407 67.3356998,106.975614 C71.7718759,102.409822 78.9580853,102.396362 83.3781532,106.945567 L105.604826,129.795527 L150.651026,83.4331669 C155.087202,78.8673745 162.273411,78.8539151 166.693479,83.4031201 C171.113547,87.9523251 171.100476,95.3484944 166.6643,99.9142868 L113.556981,154.547301 C111.42757,156.764924 108.540802,157.994341 105.529679,158 Z" id="路径" fill="#FFFFFF" fill-rule="nonzero"></path>
                    </g>
                </g>
            </g>
        </g>
    </g>
</svg>