<?xml version="1.0" encoding="UTF-8"?>
<svg width="217px" height="179px" viewBox="0 0 217 179" version="1.1" xmlns="http://www.w3.org/2000/svg" xmlns:xlink="http://www.w3.org/1999/xlink">
    <!-- Generator: Sketch 63.1 (92452) - https://sketch.com -->
    <title>青豆清单</title>
    <desc>Created with Sketch.</desc>
    <defs>
        <radialGradient cx="54.5842297%" cy="50%" fx="54.5842297%" fy="50%" r="73.9082199%" gradientTransform="translate(0.545842,0.500000),scale(0.769672,1.000000),rotate(78.296205),translate(-0.545842,-0.500000)" id="radialGradient-1">
            <stop stop-color="#AFE4AA" offset="0%"></stop>
            <stop stop-color="#5EAC55" offset="100%"></stop>
        </radialGradient>
        <polygon id="path-2" points="0 0 187.846 0 187.846 146.605 0 146.605"></polygon>
    </defs>
    <g id="Todo-v3.0-青豆清单" stroke="none" stroke-width="1" fill="none" fill-rule="evenodd">
        <g id="青豆启动页1" transform="translate(-267.000000, -243.000000)">
            <g id="青豆清单-2" transform="translate(267.000000, 243.000000)">
                <g id="青豆清单">
                    <path d="M22.4227901,154.921972 C-29.5215902,100.779591 18.7012352,38.7380517 68.4973378,57.3440251 C86.0193532,63.8522313 113.95774,60.0800124 125.386508,25.488566 C142.141366,-24.8794272 219.293677,5.75660491 215.944677,66.9716544 C210.619076,164.316223 74.3671704,209.064354 22.4227901,154.921972 Z" id="Fill-1" fill="#1E4F18"></path>
                    <path d="M31.6321959,143.907424 C-13.8078768,101.694752 25.6323315,60.9770832 69.193127,75.483424 C84.5210922,80.5576147 121.586151,72.2439896 131.583846,45.2744084 C146.240714,6.00447817 206.772431,2.4601078 194.854042,84.4315922 C191.394198,108.227471 161.349655,126.922125 144.464095,138.98167 C103.182675,168.464563 55.2776974,165.873493 31.6321959,143.907424 Z" id="Fill-1" fill="url(#radialGradient-1)"></path>
                    <g id="编组" transform="translate(12.000000, 7.791739)">
                        <mask id="mask-3" fill="white">
                            <use xlink:href="#path-2"></use>
                        </mask>
                        <g id="Clip-2"></g>
                        <path d="M55.6815,69.4774 C77.9155,77.1474 110.6535,71.1314 123.4085,35.3564 C132.5275,9.8774 173.0545,12.7734 188.8465,42.9294 C178.8225,3.6564 130.3785,-7.2836 119.7445,24.7494 C106.9405,63.4614 74.0735,69.7344 52.0175,61.5324 C41.2325,57.4974 29.1825,58.3774 19.2515,64.3004 C-15.6815,85.0414 1.06793997,136.713363 40.10994,150.980363 C3.96993997,136.581363 -11.0915,90.7764 22.9155,72.0454 C32.8465,66.5504 44.8965,65.7344 55.6815,69.4774 Z" id="Fill-1" fill="#6EC664" mask="url(#mask-3)"></path>
                    </g>
                    <path d="M99.4714903,137.4 C96.8126119,137.404842 94.2673612,136.354962 92.3939196,134.47369 L65.7197204,107.665534 C61.816717,103.746219 61.8282587,97.3741349 65.7454859,93.4405292 C69.6627131,89.5069235 76.0082716,89.4953276 79.9112749,93.4146427 L99.5378465,113.100762 L139.314491,73.1578053 C143.231718,69.2241996 149.577276,69.2126038 153.48028,73.1319188 C157.383283,77.0512339 157.371741,83.4233183 153.454514,87.356924 L106.559749,134.425367 C104.67944,136.335935 102.130369,137.395124 99.4714903,137.4 Z" id="路径" fill="#FFFFFF" fill-rule="nonzero" opacity="0.583612351"></path>
                    <path d="M202.423749,72.2 C190.20451,163.864275 74.0674498,182.00455 33.7223753,148.790942 C29.304127,145.153671 23.6779104,138.601108 21.0528352,134.862319 C13.0859622,123.515423 10.5675806,112.996231 11.6644225,101.986533 C11.9539075,104.865233 12.1687943,115.893497 23.8161679,127.965841 C28.4325313,132.750638 38.8675339,141.847408 45.6985064,144.359005 C78.7728371,156.519704 152.915103,165.657244 190.845414,81.0942385 C200.8465,58.7975089 191.88313,32.3227391 182.666811,22.804347 C195.845869,32.5575838 205.719129,47.4792662 202.423749,72.2 Z" id="路径" fill="#2E7928"></path>
                </g>
            </g>
        </g>
    </g>
</svg>