<?xml version="1.0" encoding="UTF-8"?>
<svg width="78px" height="78px" viewBox="0 0 78 78" version="1.1" xmlns="http://www.w3.org/2000/svg" xmlns:xlink="http://www.w3.org/1999/xlink">
    <!-- Generator: Sketch 59 (86127) - https://sketch.com -->
    <title>编组 5备份 2@1</title>
    <desc>Created with Sketch.</desc>
    <defs>
        <circle id="path-1" cx="35" cy="35" r="35"></circle>
        <filter x="-10.0%" y="-7.1%" width="120.0%" height="120.0%" filterUnits="objectBoundingBox" id="filter-2">
            <feOffset dx="0" dy="2" in="SourceAlpha" result="shadowOffsetOuter1"></feOffset>
            <feGaussianBlur stdDeviation="2" in="shadowOffsetOuter1" result="shadowBlurOuter1"></feGaussianBlur>
            <feColorMatrix values="0 0 0 0 0.780935556   0 0 0 0 0.804605235   0 0 0 0 0.780935556  0 0 0 1 0" type="matrix" in="shadowBlurOuter1"></feColorMatrix>
        </filter>
    </defs>
    <g id="页面-3" stroke="none" stroke-width="1" fill="none" fill-rule="evenodd">
        <g id="首页-卡片hover效果" transform="translate(-606.000000, -2366.000000)">
            <g id="编组-5备份-2" transform="translate(606.000000, 2366.000000)">
                <g id="编组-5备份" transform="translate(4.000000, 2.000000)">
                    <g id="椭圆形">
                        <use fill="black" fill-opacity="1" filter="url(#filter-2)" xlink:href="#path-1"></use>
                        <use fill="#FFFFFF" fill-rule="evenodd" xlink:href="#path-1"></use>
                    </g>
                    <path d="M49.4972399,37.0466395 L36.2101483,23.6429004 C35.9157329,23.3463795 35.5310701,23.2040178 35.1478617,23.2069798 C35.0961032,23.2025172 35.0517072,23.1773322 34.9999927,23.1773322 C34.7839207,23.1773322 34.5827499,23.2277464 34.3977577,23.3107686 C34.2114006,23.3819051 34.0339045,23.4902011 33.8829946,23.6414436 L21.8933553,35.6365876 C21.3148851,36.2148271 21.3134289,37.1534343 21.8918564,37.7331763 C22.1803199,38.0237321 22.5591169,38.1691443 22.9393267,38.1691443 C23.3180371,38.1691443 23.6952913,38.0237339 23.9852976,37.7361383 L33.5205269,28.1948419 L33.5205269,54.3143654 C33.5205269,55.13438 34.183337,55.7971014 35.0000103,55.7971014 C35.8165543,55.7971014 36.4794936,55.13438 36.4794936,54.3143654 L36.4794935,28.1221302 L47.3994187,39.1373068 C47.6879266,39.4279067 48.0696778,39.5746868 48.4483883,39.5746868 C48.8270987,39.5746868 49.202901,39.4308225 49.4913649,39.1431389 C50.0728338,38.5664452 50.0742426,37.6262923 49.4972727,37.0465934 L49.4972399,37.0466395 Z M51.274183,20.2118488 L18.7258601,20.2118488 C17.9092299,20.2118488 17.2463768,19.5475816 17.2463768,18.7291128 C17.2463768,17.9106441 17.9091869,17.2463768 18.7258601,17.2463768 L51.274183,17.2463768 C52.0922694,17.2463768 52.7536232,17.9106441 52.7536232,18.7291128 C52.7536232,19.5475816 52.0922263,20.2118488 51.274183,20.2118488 Z" id="形状" fill="#16AB78" fill-rule="nonzero"></path>
                </g>
            </g>
        </g>
    </g>
</svg>